<?xml version="1.0" encoding="UTF-8" standalone="no"?>
<svg
   viewBox="0 0 2229.9212 1474.0158"
   width="590mm"
   height="390mm"
   version="1.1"
   id="svg236"
   sodipodi:docname="GridfinityDrawer-Sheet-1.svg"
   inkscape:version="1.4.4 (dcaf3e7d9e, 2026-05-05)"
   xml:space="preserve"
   xmlns:inkscape="http://www.inkscape.org/namespaces/inkscape"
   xmlns:sodipodi="http://sodipodi.sourceforge.net/DTD/sodipodi-0.dtd"
   xmlns="http://www.w3.org/2000/svg"
   xmlns:svg="http://www.w3.org/2000/svg"><sodipodi:namedview
     id="namedview236"
     pagecolor="#ffffff"
     bordercolor="#000000"
     borderopacity="0.25"
     inkscape:showpageshadow="2"
     inkscape:pageopacity="0.0"
     inkscape:pagecheckerboard="0"
     inkscape:deskcolor="#d1d1d1"
     inkscape:zoom="0.51357676"
     inkscape:cx="684.4157"
     inkscape:cy="912.22975"
     inkscape:window-width="3440"
     inkscape:window-height="1362"
     inkscape:window-x="0"
     inkscape:window-y="0"
     inkscape:window-maximized="1"
     inkscape:current-layer="svg236"
     inkscape:document-units="mm" /><desc
     id="desc1">GridfinityDrawer-Export-Bottom.dxf - scale = 1.000000, origin = (0.000000, 0.000000), method = manual</desc><defs
     id="defs4"><marker
       id="DistanceX"
       orient="auto"
       refX="0"
       refY="0"
       style="overflow:visible"><path
         d="M 3,-3 -3,3 M 0,-5 V 5"
         style="stroke:#000000;stroke-width:0.5"
         id="path1" /></marker><pattern
       id="Hatch"
       patternUnits="userSpaceOnUse"
       width="8"
       height="8"
       x="0"
       y="0"><path
         d="M8 4 l-4,4"
         stroke="#000000"
         stroke-width="0.25"
         linecap="square"
         id="path2" /><path
         d="M6 2 l-4,4"
         stroke="#000000"
         stroke-width="0.25"
         linecap="square"
         id="path3" /><path
         d="M4 0 l-4,4"
         stroke="#000000"
         stroke-width="0.25"
         linecap="square"
         id="path4" /></pattern><symbol
       id="*MODEL_SPACE" /><symbol
       id="*PAPER_SPACE" /><marker
       id="DistanceX-7"
       orient="auto"
       refX="0"
       refY="0"
       style="overflow:visible"><path
         d="M 3,-3 -3,3 M 0,-5 V 5"
         style="stroke:#000000;stroke-width:0.5"
         id="path1-5" /></marker><pattern
       id="Hatch-3"
       patternUnits="userSpaceOnUse"
       width="8"
       height="8"
       x="0"
       y="0"><path
         d="M8 4 l-4,4"
         stroke="#000000"
         stroke-width="0.25"
         linecap="square"
         id="path2-5" /><path
         d="M6 2 l-4,4"
         stroke="#000000"
         stroke-width="0.25"
         linecap="square"
         id="path3-6" /><path
         d="M4 0 l-4,4"
         stroke="#000000"
         stroke-width="0.25"
         linecap="square"
         id="path4-2" /></pattern><symbol
       id="*MODEL_SPACE-9" /><symbol
       id="*PAPER_SPACE-1" /><marker
       id="DistanceX-74"
       orient="auto"
       refX="0"
       refY="0"
       style="overflow:visible"><path
         d="M 3,-3 -3,3 M 0,-5 V 5"
         style="stroke:#000000;stroke-width:0.5"
         id="path1-52" /></marker><pattern
       id="Hatch-5"
       patternUnits="userSpaceOnUse"
       width="8"
       height="8"
       x="0"
       y="0"><path
         d="M8 4 l-4,4"
         stroke="#000000"
         stroke-width="0.25"
         linecap="square"
         id="path2-4" /><path
         d="M6 2 l-4,4"
         stroke="#000000"
         stroke-width="0.25"
         linecap="square"
         id="path3-7" /><path
         d="M4 0 l-4,4"
         stroke="#000000"
         stroke-width="0.25"
         linecap="square"
         id="path4-4" /></pattern><symbol
       id="*MODEL_SPACE-4" /><symbol
       id="*PAPER_SPACE-3" /><marker
       id="DistanceX-8"
       orient="auto"
       refX="0"
       refY="0"
       style="overflow:visible"><path
         d="M 3,-3 -3,3 M 0,-5 V 5"
         style="stroke:#000000;stroke-width:0.5"
         id="path1-6" /></marker><pattern
       id="Hatch-8"
       patternUnits="userSpaceOnUse"
       width="8"
       height="8"
       x="0"
       y="0"><path
         d="M8 4 l-4,4"
         stroke="#000000"
         stroke-width="0.25"
         linecap="square"
         id="path2-8" /><path
         d="M6 2 l-4,4"
         stroke="#000000"
         stroke-width="0.25"
         linecap="square"
         id="path3-4" /><path
         d="M4 0 l-4,4"
         stroke="#000000"
         stroke-width="0.25"
         linecap="square"
         id="path4-3" /></pattern><symbol
       id="*MODEL_SPACE-1" /><symbol
       id="*PAPER_SPACE-4" /><marker
       id="DistanceX-0"
       orient="auto"
       refX="0"
       refY="0"
       style="overflow:visible"><path
         d="M 3,-3 -3,3 M 0,-5 V 5"
         style="stroke:#000000;stroke-width:0.5"
         id="path1-8" /></marker><pattern
       id="Hatch-85"
       patternUnits="userSpaceOnUse"
       width="8"
       height="8"
       x="0"
       y="0"><path
         d="M8 4 l-4,4"
         stroke="#000000"
         stroke-width="0.25"
         linecap="square"
         id="path2-0" /><path
         d="M6 2 l-4,4"
         stroke="#000000"
         stroke-width="0.25"
         linecap="square"
         id="path3-9" /><path
         d="M4 0 l-4,4"
         stroke="#000000"
         stroke-width="0.25"
         linecap="square"
         id="path4-6" /></pattern><symbol
       id="*MODEL_SPACE-3" /><symbol
       id="*PAPER_SPACE-8" /><marker
       id="DistanceX-03"
       orient="auto"
       refX="0"
       refY="0"
       style="overflow:visible"><path
         d="M 3,-3 -3,3 M 0,-5 V 5"
         style="stroke:#000000;stroke-width:0.5"
         id="path1-0" /></marker><pattern
       id="Hatch-9"
       patternUnits="userSpaceOnUse"
       width="8"
       height="8"
       x="0"
       y="0"><path
         d="M8 4 l-4,4"
         stroke="#000000"
         stroke-width="0.25"
         linecap="square"
         id="path2-2" /><path
         d="M6 2 l-4,4"
         stroke="#000000"
         stroke-width="0.25"
         linecap="square"
         id="path3-5" /><path
         d="M4 0 l-4,4"
         stroke="#000000"
         stroke-width="0.25"
         linecap="square"
         id="path4-40" /></pattern><symbol
       id="*MODEL_SPACE-5" /><symbol
       id="*PAPER_SPACE-9" /><marker
       id="DistanceX-1"
       orient="auto"
       refX="0"
       refY="0"
       style="overflow:visible"><path
         d="M 3,-3 -3,3 M 0,-5 V 5"
         style="stroke:#000000;stroke-width:0.5"
         id="path1-3" /></marker><pattern
       id="Hatch-2"
       patternUnits="userSpaceOnUse"
       width="8"
       height="8"
       x="0"
       y="0"><path
         d="M8 4 l-4,4"
         stroke="#000000"
         stroke-width="0.25"
         linecap="square"
         id="path2-1" /><path
         d="M6 2 l-4,4"
         stroke="#000000"
         stroke-width="0.25"
         linecap="square"
         id="path3-59" /><path
         d="M4 0 l-4,4"
         stroke="#000000"
         stroke-width="0.25"
         linecap="square"
         id="path4-9" /></pattern><symbol
       id="*MODEL_SPACE-14" /><symbol
       id="*PAPER_SPACE-91" /><marker
       id="DistanceX-5"
       orient="auto"
       refX="0"
       refY="0"
       style="overflow:visible"><path
         d="M 3,-3 -3,3 M 0,-5 V 5"
         style="stroke:#000000;stroke-width:0.5"
         id="path1-2" /></marker><pattern
       id="Hatch-6"
       patternUnits="userSpaceOnUse"
       width="8"
       height="8"
       x="0"
       y="0"><path
         d="M8 4 l-4,4"
         stroke="#000000"
         stroke-width="0.25"
         linecap="square"
         id="path2-58" /><path
         d="M6 2 l-4,4"
         stroke="#000000"
         stroke-width="0.25"
         linecap="square"
         id="path3-79" /><path
         d="M4 0 l-4,4"
         stroke="#000000"
         stroke-width="0.25"
         linecap="square"
         id="path4-60" /></pattern><symbol
       id="*MODEL_SPACE-41" /><symbol
       id="*PAPER_SPACE-0" /><marker
       id="DistanceX-73"
       orient="auto"
       refX="0"
       refY="0"
       style="overflow:visible"><path
         d="M 3,-3 -3,3 M 0,-5 V 5"
         style="stroke:#000000;stroke-width:0.5"
         id="path1-1" /></marker><pattern
       id="Hatch-1"
       patternUnits="userSpaceOnUse"
       width="8"
       height="8"
       x="0"
       y="0"><path
         d="M8 4 l-4,4"
         stroke="#000000"
         stroke-width="0.25"
         linecap="square"
         id="path2-9" /><path
         d="M6 2 l-4,4"
         stroke="#000000"
         stroke-width="0.25"
         linecap="square"
         id="path3-0" /><path
         d="M4 0 l-4,4"
         stroke="#000000"
         stroke-width="0.25"
         linecap="square"
         id="path4-5" /></pattern><symbol
       id="*MODEL_SPACE-6" /><symbol
       id="*PAPER_SPACE-7" /><marker
       id="DistanceX-3"
       orient="auto"
       refX="0"
       refY="0"
       style="overflow:visible"><path
         d="M 3,-3 -3,3 M 0,-5 V 5"
         style="stroke:#000000;stroke-width:0.5"
         id="path1-38" /></marker><pattern
       id="Hatch-37"
       patternUnits="userSpaceOnUse"
       width="8"
       height="8"
       x="0"
       y="0"><path
         d="M8 4 l-4,4"
         stroke="#000000"
         stroke-width="0.25"
         linecap="square"
         id="path2-93" /><path
         d="M6 2 l-4,4"
         stroke="#000000"
         stroke-width="0.25"
         linecap="square"
         id="path3-78" /><path
         d="M4 0 l-4,4"
         stroke="#000000"
         stroke-width="0.25"
         linecap="square"
         id="path4-7" /></pattern><symbol
       id="*MODEL_SPACE-419" /><symbol
       id="*PAPER_SPACE-09" /><marker
       id="DistanceX-09"
       orient="auto"
       refX="0"
       refY="0"
       style="overflow:visible"><path
         d="M 3,-3 -3,3 M 0,-5 V 5"
         style="stroke:#000000;stroke-width:0.5"
         id="path1-7" /></marker><pattern
       id="Hatch-99"
       patternUnits="userSpaceOnUse"
       width="8"
       height="8"
       x="0"
       y="0"><path
         d="M8 4 l-4,4"
         stroke="#000000"
         stroke-width="0.25"
         linecap="square"
         id="path2-3" /><path
         d="M6 2 l-4,4"
         stroke="#000000"
         stroke-width="0.25"
         linecap="square"
         id="path3-2" /><path
         d="M4 0 l-4,4"
         stroke="#000000"
         stroke-width="0.25"
         linecap="square"
         id="path4-43" /></pattern><symbol
       id="*MODEL_SPACE-7" /><symbol
       id="*PAPER_SPACE-12" /><marker
       id="DistanceX-36"
       orient="auto"
       refX="0"
       refY="0"
       style="overflow:visible"><path
         d="M 3,-3 -3,3 M 0,-5 V 5"
         style="stroke:#000000;stroke-width:0.5"
         id="path1-12" /></marker><pattern
       id="Hatch-93"
       patternUnits="userSpaceOnUse"
       width="8"
       height="8"
       x="0"
       y="0"><path
         d="M8 4 l-4,4"
         stroke="#000000"
         stroke-width="0.25"
         linecap="square"
         id="path2-19" /><path
         d="M6 2 l-4,4"
         stroke="#000000"
         stroke-width="0.25"
         linecap="square"
         id="path3-47" /><path
         d="M4 0 l-4,4"
         stroke="#000000"
         stroke-width="0.25"
         linecap="square"
         id="path4-8" /></pattern><symbol
       id="*MODEL_SPACE-45" /><symbol
       id="*PAPER_SPACE-03" /><marker
       id="DistanceX-35"
       orient="auto"
       refX="0.0"
       refY="0.0"
       style="overflow:visible"><path
         d="M 3,-3 L -3,3 M 0,-5 L  0,5"
         style="stroke:#000000; stroke-width:0.5"
         id="path1-62" /></marker><pattern
       id="Hatch-91"
       patternUnits="userSpaceOnUse"
       width="8"
       height="8"
       x="0"
       y="0"><path
         d="M8 4 l-4,4"
         stroke="#000000"
         stroke-width="0.25"
         linecap="square"
         id="path2-27" /><path
         d="M6 2 l-4,4"
         stroke="#000000"
         stroke-width="0.25"
         linecap="square"
         id="path3-09" /><path
         d="M4 0 l-4,4"
         stroke="#000000"
         stroke-width="0.25"
         linecap="square"
         id="path4-36" /></pattern><symbol
       id="*MODEL_SPACE-0" /><symbol
       id="*PAPER_SPACE-6" /></defs><g
     id="g238"
     transform="translate(1055.098,-667.6732)"><g
       inkscape:label="0"
       id="g4-9" /><g
       inkscape:label="none"
       id="g5-2" /><g
       inkscape:label="Shape2DView001"
       id="g57"><path
         id="path55-1"
         style="fill:none;stroke:#000000"
         d="M 10.9606,782.74 H 0.377953 M 10.9606,827.339 V 782.74 m -10.582647,0 v 44.599 m 0,0 H 10.9606 m 0,46.11 H 0.377953 M 10.9606,918.047 v -44.598 m -10.582647,0 v 44.598 m 0,0 H 10.9606 m 0,46.11 H 0.377953 M 10.9606,1008.76 v -44.603 m -10.582647,0 v 44.603 m 0,0 H 10.9606 m 0,46.11 H 0.377953 m 10.582647,44.59 v -44.59 m -10.582647,0 v 44.59 m 0,0 H 10.9606 m 0,46.11 H 0.377953 m 10.582647,44.6 v -44.6 m -10.582647,0 v 44.6 m 0,0 H 10.9606 m 0,46.11 H 0.377953 m 10.582647,44.6 v -44.6 m -10.582647,0 v 44.6 m 0,0 H 10.9606 m 0,46.11 H 0.377953 m 10.582647,44.6 v -44.6 m -10.582647,0 v 44.6 m 0,0 H 10.9606 m 0,46.11 H 0.377953 m 10.582647,44.6 v -44.6 m -10.582647,0 v 44.6 m 0,0 H 10.9606" /><path
         id="path57-9"
         style="fill:none;stroke:#000000"
         d="m -158.74,706.772 h 44.976 m 0,831.498 h -44.976 m 0,-26.46 v 26.46 m 0,-26.46 h 18.897 m 4.8e-4,10e-4 a 1511.811,1511.811 0 0 0 56.692914,-389.2913 m 0,0 A 1511.811,1511.811 0 0 0 -139.84252,733.22835 M -158.74,733.228 h 18.897 m -18.897,-26.456 v 26.456 m 44.976,-26.456 v -11.339 m 46.1105,0 h -46.1105 m 46.1105,0 v 11.339 m 0,0 h 44.5984 m 0,0 v -11.339 m 45.7323,0 H -23.0551 M 22.6772,1549.61 V 695.433 m -45.7323,854.177 h 45.7323 m -45.7323,0 v -11.34 m 0,0 h -44.5984 m 0,0 v 11.34 m -46.1105,0 h 46.1105 m -46.1105,0 v -11.34" /><path
         id="path2-38"
         style="display:inline;fill:#636363;fill-opacity:1;stroke-width:0.0778834;-inkscape-stroke:none"
         d="m 1075.1198,67.740047 c 0.5687,3.573236 1.9416,12.840628 4.501,22.053818 1.0145,3.65201 3.894,13.635075 4.9173,20.142035 0.091,0.27813 1.199,3.48832 1.3297,3.49838 h 14.399 c 0.464,-1.17248 1.5845,-1.36547 6.8061,-7.74745 3.8884,-5.55041 6.2243,-8.805575 9.9458,-15.200225 1.472,-1.99062 2.9148,-3.2145 3.9763,-4.15283 0.5971,-0.40756 0.5738,-0.41205 1.1709,-0.59213 v -19.46267 h -47.0213 z m 14.0776,11.489958 c 0.3975,-2.325664 0.6966,-2.460627 2.0971,-3.509782 1.9972,-1.166151 2.5592,-0.897741 4.2514,-0.742176 2.4998,0.342119 3.445,1.223546 3.8357,2.213189 0.058,2.437289 -0.128,2.732069 -1.4489,4.145119 -1.1327,1.30601 -4.0533,1.2141 -6.2827,0.93027 -1.4957,-0.40226 -2.4281,-1.3186 -2.4526,-3.03662 z m 19.7213,3.57078 c 0.066,-3.18464 0.3602,-3.43116 0.5782,-4.22732 0.6121,-1.169423 1.0677,-3.253829 1.6396,-3.402532 1.0819,-0.03038 1.4022,-0.0662 1.5546,0.454825 0.085,1.819798 0.3127,4.454687 0.3127,6.615687 0.1611,3.28889 0.4359,4.64436 -0.2749,5.61111 -1.6821,0.35058 -1.8899,0.30604 -3.1562,-0.21798 -0.6825,-0.97624 -0.5023,-3.24149 -0.654,-4.83379 z"
         sodipodi:nodetypes="csccccccccccccccccccccccccc"
         transform="translate(-1121.788,650.87451)" /></g></g><g
     id="g239"
     transform="translate(1260.0772,-667.6732)"><g
       inkscape:label="0"
       id="g4-5" /><g
       inkscape:label="none"
       id="g5-6" /><g
       inkscape:label="Shape2DView001"
       id="g57-1"><path
         id="path55-7"
         style="fill:none;stroke:#000000"
         d="M 10.9606,782.74 H 0.377953 M 10.9606,827.339 V 782.74 m -10.582647,0 v 44.599 m 0,0 H 10.9606 m 0,46.11 H 0.377953 M 10.9606,918.047 v -44.598 m -10.582647,0 v 44.598 m 0,0 H 10.9606 m 0,46.11 H 0.377953 M 10.9606,1008.76 v -44.603 m -10.582647,0 v 44.603 m 0,0 H 10.9606 m 0,46.11 H 0.377953 m 10.582647,44.59 v -44.59 m -10.582647,0 v 44.59 m 0,0 H 10.9606 m 0,46.11 H 0.377953 m 10.582647,44.6 v -44.6 m -10.582647,0 v 44.6 m 0,0 H 10.9606 m 0,46.11 H 0.377953 m 10.582647,44.6 v -44.6 m -10.582647,0 v 44.6 m 0,0 H 10.9606 m 0,46.11 H 0.377953 m 10.582647,44.6 v -44.6 m -10.582647,0 v 44.6 m 0,0 H 10.9606 m 0,46.11 H 0.377953 m 10.582647,44.6 v -44.6 m -10.582647,0 v 44.6 m 0,0 H 10.9606" /><path
         id="path57-6"
         style="fill:none;stroke:#000000"
         d="m -158.74,706.772 h 44.976 m 0,831.498 h -44.976 m 0,-26.46 v 26.46 m 0,-26.46 h 18.897 m 4.8e-4,10e-4 a 1511.811,1511.811 0 0 0 56.692914,-389.2913 m 0,0 A 1511.811,1511.811 0 0 0 -139.84252,733.22835 M -158.74,733.228 h 18.897 m -18.897,-26.456 v 26.456 m 44.976,-26.456 v -11.339 m 46.1105,0 h -46.1105 m 46.1105,0 v 11.339 m 0,0 h 44.5984 m 0,0 v -11.339 m 45.7323,0 H -23.0551 M 22.6772,1549.61 V 695.433 m -45.7323,854.177 h 45.7323 m -45.7323,0 v -11.34 m 0,0 h -44.5984 m 0,0 v 11.34 m -46.1105,0 h 46.1105 m -46.1105,0 v -11.34" /></g></g><g
     id="g240"
     transform="translate(1465.0564,-667.6732)"><g
       inkscape:label="0"
       id="g4-4" /><g
       inkscape:label="none"
       id="g5-69" /><g
       inkscape:label="Shape2DView002"
       id="g84"><path
         id="path20-0"
         style="fill:none;stroke:#000000"
         d="m -113.008,1549.61 h -45.732 m 0,0 V 695.433 m 90.3306,11.339 h -44.5986 m 44.5986,-11.339 v 11.339 m 0,-11.339 h 46.1102 m 0,11.339 v -11.339 m 44.9764,11.339 h -44.9764 m 44.9764,0 v 831.498 m -44.9764,0 h 44.9764 m -44.9764,11.34 v -11.34 m 0,11.34 h -46.1102 m 0,-11.34 v 11.34 m -44.5986,-11.34 h 44.5986 m -44.5986,11.34 v -11.34 m 0,-831.498 v -11.339 m -45.732,0 h 45.732" /><path
         id="path84-2"
         style="fill:none;stroke:#000000"
         d="M -147.024,827.339 V 782.74 m 10.583,44.599 h -10.583 m 0,-44.599 h 10.583 m 0,0 v 44.599 m -10.583,90.708 v -44.598 m 10.583,44.598 h -10.583 m 0,-44.598 h 10.583 m 0,0 v 44.598 m -10.583,90.713 v -44.603 m 10.583,44.603 h -10.583 m 0,-44.603 h 10.583 m 0,0 v 44.603 m -10.583,90.7 v -44.59 m 10.583,44.59 h -10.583 m 0,-44.59 h 10.583 m 0,0 v 44.59 M 0.377953,827.339 V 782.74 M 10.9606,827.339 H 0.377953 m 0,-44.599 H 10.9606 m 0,0 v 44.599 M 0.377953,918.047 V 873.449 M 10.9606,918.047 H 0.377953 m 0,-44.598 H 10.9606 m 0,0 v 44.598 M 0.377953,1008.76 V 964.157 M 10.9606,1008.76 H 0.377953 m 0,-44.603 H 10.9606 m 0,0 v 44.603 m -10.582647,90.7 v -44.59 M 10.9606,1099.46 H 0.377953 m 0,-44.59 H 10.9606 m 0,0 v 44.59 m -157.9846,90.71 v -44.6 m 10.583,44.6 h -10.583 m 0,-44.6 h 10.583 m 0,0 v 44.6 m -10.583,90.71 v -44.6 m 10.583,44.6 h -10.583 m 0,-44.6 h 10.583 m 0,0 v 44.6 m -10.583,90.71 v -44.6 m 10.583,44.6 h -10.583 m 0,-44.6 h 10.583 m 0,0 v 44.6 m -10.583,90.71 v -44.6 m 10.583,44.6 h -10.583 m 0,-44.6 h 10.583 m 0,0 v 44.6 M 0.377953,1190.17 v -44.6 m 10.582647,44.6 H 0.377953 m 0,-44.6 H 10.9606 m 0,0 v 44.6 m -10.582647,90.71 v -44.6 m 10.582647,44.6 H 0.377953 m 0,-44.6 H 10.9606 m 0,0 v 44.6 m -10.582647,90.71 v -44.6 m 10.582647,44.6 H 0.377953 m 0,-44.6 H 10.9606 m 0,0 v 44.6 M 0.377953,1462.3 v -44.6 M 10.9606,1462.3 H 0.377953 m 0,-44.6 H 10.9606 m 0,0 v 44.6" /></g></g><g
     id="g241"
     transform="translate(1670.0357,-667.6732)"><g
       inkscape:label="0"
       id="g4-0" /><g
       inkscape:label="none"
       id="g5-7" /><g
       inkscape:label="Shape2DView002"
       id="g84-5"><path
         id="path20-5"
         style="fill:none;stroke:#000000"
         d="m -113.008,1549.61 h -45.732 m 0,0 V 695.433 m 90.3306,11.339 h -44.5986 m 44.5986,-11.339 v 11.339 m 0,-11.339 h 46.1102 m 0,11.339 v -11.339 m 44.9764,11.339 h -44.9764 m 44.9764,0 v 831.498 m -44.9764,0 h 44.9764 m -44.9764,11.34 v -11.34 m 0,11.34 h -46.1102 m 0,-11.34 v 11.34 m -44.5986,-11.34 h 44.5986 m -44.5986,11.34 v -11.34 m 0,-831.498 v -11.339 m -45.732,0 h 45.732" /><path
         id="path84-3"
         style="fill:none;stroke:#000000"
         d="M -147.024,827.339 V 782.74 m 10.583,44.599 h -10.583 m 0,-44.599 h 10.583 m 0,0 v 44.599 m -10.583,90.708 v -44.598 m 10.583,44.598 h -10.583 m 0,-44.598 h 10.583 m 0,0 v 44.598 m -10.583,90.713 v -44.603 m 10.583,44.603 h -10.583 m 0,-44.603 h 10.583 m 0,0 v 44.603 m -10.583,90.7 v -44.59 m 10.583,44.59 h -10.583 m 0,-44.59 h 10.583 m 0,0 v 44.59 M 0.377953,827.339 V 782.74 M 10.9606,827.339 H 0.377953 m 0,-44.599 H 10.9606 m 0,0 v 44.599 M 0.377953,918.047 V 873.449 M 10.9606,918.047 H 0.377953 m 0,-44.598 H 10.9606 m 0,0 v 44.598 M 0.377953,1008.76 V 964.157 M 10.9606,1008.76 H 0.377953 m 0,-44.603 H 10.9606 m 0,0 v 44.603 m -10.582647,90.7 v -44.59 M 10.9606,1099.46 H 0.377953 m 0,-44.59 H 10.9606 m 0,0 v 44.59 m -157.9846,90.71 v -44.6 m 10.583,44.6 h -10.583 m 0,-44.6 h 10.583 m 0,0 v 44.6 m -10.583,90.71 v -44.6 m 10.583,44.6 h -10.583 m 0,-44.6 h 10.583 m 0,0 v 44.6 m -10.583,90.71 v -44.6 m 10.583,44.6 h -10.583 m 0,-44.6 h 10.583 m 0,0 v 44.6 m -10.583,90.71 v -44.6 m 10.583,44.6 h -10.583 m 0,-44.6 h 10.583 m 0,0 v 44.6 M 0.377953,1190.17 v -44.6 m 10.582647,44.6 H 0.377953 m 0,-44.6 H 10.9606 m 0,0 v 44.6 m -10.582647,90.71 v -44.6 m 10.582647,44.6 H 0.377953 m 0,-44.6 H 10.9606 m 0,0 v 44.6 m -10.582647,90.71 v -44.6 m 10.582647,44.6 H 0.377953 m 0,-44.6 H 10.9606 m 0,0 v 44.6 M 0.377953,1462.3 v -44.6 M 10.9606,1462.3 H 0.377953 m 0,-44.6 H 10.9606 m 0,0 v 44.6" /></g></g><g
     id="g242"
     transform="translate(2268.9709,-667.6732)"><g
       inkscape:label="0"
       id="g4-48" /><g
       inkscape:label="none"
       id="g5-70" /><g
       inkscape:label="Shape2DView003"
       id="g42"><path
         id="path42-1"
         style="fill:none;stroke:#000000"
         d="m -472.441,1549.61 h 45.354 m -45.354,-124.73 v 124.73 m 18.898,-124.73 h -18.898 m 45.354,38.18 v 86.55 m 11.339,-86.55 h -11.339 m 11.339,0 v -46.12 m -11.339,0 h 11.339 m -11.339,-44.59 v 44.59 m 11.339,-44.59 h -11.339 m 11.339,0 v -46.11 m -11.339,0 h 11.339 m -11.339,-44.6 v 44.6 m 11.339,-44.6 h -11.339 m 11.339,0 v -46.11 m -11.339,0 h 11.339 m -11.339,-44.6 v 44.6 m 11.339,-44.6 h -11.339 m 11.339,0 v -46.11 m -11.339,0 h 11.339 m -11.339,-44.6 v 44.6 m 11.339,-44.6 h -11.339 m 11.339,0 v -46.11 m -11.339,0 h 11.339 m -11.339,-44.6 v 44.6 m 11.339,-44.6 h -11.339 m 11.339,0 v -46.108 m -11.339,0 h 11.339 m -11.339,-44.599 v 44.599 m 11.339,-44.599 h -11.339 m 11.339,0 v -46.11 m -11.339,0 h 11.339 m -11.339,-44.599 v 44.599 m 11.339,-44.599 h -11.339 m 11.339,0 v -46.11 m -11.339,0 h 11.339 m -11.339,-86.551 v 86.551 m 0,-86.551 h -26.456 m 0,0 v 729.447" /></g></g><g
     id="g243"
     transform="rotate(180,650.26343,788.6849)"><g
       inkscape:label="0"
       id="g4-7" /><g
       inkscape:label="none"
       id="g5-4" /><g
       inkscape:label="Shape2DView003"
       id="g42-0"><path
         id="path42-7"
         style="fill:none;stroke:#000000"
         d="m -472.441,1549.61 h 45.354 m -45.354,-124.73 v 124.73 m 18.898,-124.73 h -18.898 m 45.354,38.18 v 86.55 m 11.339,-86.55 h -11.339 m 11.339,0 v -46.12 m -11.339,0 h 11.339 m -11.339,-44.59 v 44.59 m 11.339,-44.59 h -11.339 m 11.339,0 v -46.11 m -11.339,0 h 11.339 m -11.339,-44.6 v 44.6 m 11.339,-44.6 h -11.339 m 11.339,0 v -46.11 m -11.339,0 h 11.339 m -11.339,-44.6 v 44.6 m 11.339,-44.6 h -11.339 m 11.339,0 v -46.11 m -11.339,0 h 11.339 m -11.339,-44.6 v 44.6 m 11.339,-44.6 h -11.339 m 11.339,0 v -46.11 m -11.339,0 h 11.339 m -11.339,-44.6 v 44.6 m 11.339,-44.6 h -11.339 m 11.339,0 v -46.108 m -11.339,0 h 11.339 m -11.339,-44.599 v 44.599 m 11.339,-44.599 h -11.339 m 11.339,0 v -46.11 m -11.339,0 h 11.339 m -11.339,-44.599 v 44.599 m 11.339,-44.599 h -11.339 m 11.339,0 v -46.11 m -11.339,0 h 11.339 m -11.339,-86.551 v 86.551 m 0,-86.551 h -26.456 m 0,0 v 729.447" /></g></g><g
     id="g238-7"
     transform="rotate(90,268.58417,1313.3152)"><g
       inkscape:label="0"
       id="g4-9-4" /><g
       inkscape:label="none"
       id="g5-2-8" /><g
       inkscape:label="Shape2DView001"
       id="g57-5"><path
         id="path55-1-9"
         style="fill:none;stroke:#000000"
         d="M 10.9606,782.74 H 0.377953 M 10.9606,827.339 V 782.74 m -10.582647,0 v 44.599 m 0,0 H 10.9606 m 0,46.11 H 0.377953 M 10.9606,918.047 v -44.598 m -10.582647,0 v 44.598 m 0,0 H 10.9606 m 0,46.11 H 0.377953 M 10.9606,1008.76 v -44.603 m -10.582647,0 v 44.603 m 0,0 H 10.9606 m 0,46.11 H 0.377953 m 10.582647,44.59 v -44.59 m -10.582647,0 v 44.59 m 0,0 H 10.9606 m 0,46.11 H 0.377953 m 10.582647,44.6 v -44.6 m -10.582647,0 v 44.6 m 0,0 H 10.9606 m 0,46.11 H 0.377953 m 10.582647,44.6 v -44.6 m -10.582647,0 v 44.6 m 0,0 H 10.9606 m 0,46.11 H 0.377953 m 10.582647,44.6 v -44.6 m -10.582647,0 v 44.6 m 0,0 H 10.9606 m 0,46.11 H 0.377953 m 10.582647,44.6 v -44.6 m -10.582647,0 v 44.6 m 0,0 H 10.9606" /><path
         id="path57-9-8"
         style="fill:none;stroke:#000000"
         d="m -158.74,706.772 h 44.976 m 0,831.498 h -44.976 m 0,-26.46 v 26.46 m 0,-26.46 h 18.897 m 4.8e-4,10e-4 a 1511.811,1511.811 0 0 0 56.692914,-389.2913 m 0,0 A 1511.811,1511.811 0 0 0 -139.84252,733.22835 M -158.74,733.228 h 18.897 m -18.897,-26.456 v 26.456 m 44.976,-26.456 v -11.339 m 46.1105,0 h -46.1105 m 46.1105,0 v 11.339 m 0,0 h 44.5984 m 0,0 v -11.339 m 45.7323,0 H -23.0551 M 22.6772,1549.61 V 695.433 m -45.7323,854.177 h 45.7323 m -45.7323,0 v -11.34 m 0,0 h -44.5984 m 0,0 v 11.34 m -46.1105,0 h 46.1105 m -46.1105,0 v -11.34" /><path
         id="path2-38-2"
         style="display:inline;fill:#636363;fill-opacity:1;stroke-width:0.0778834;-inkscape-stroke:none"
         d="m 885.31405,1064.1506 c -3.57323,0.5687 -12.84062,1.9416 -22.05382,4.501 -3.65201,1.0145 -13.63507,3.894 -20.14203,4.9173 -0.27813,0.091 -3.48832,1.199 -3.49838,1.3297 v 14.399 c 1.17248,0.464 1.36547,1.5845 7.74745,6.8061 5.55041,3.8884 8.80558,6.2243 15.20023,9.9458 1.99062,1.472 3.2145,2.9148 4.15283,3.9763 0.40755,0.5971 0.41205,0.5738 0.59213,1.1709 h 19.46267 v -47.0213 z m -11.48995,14.0776 c 2.32566,0.3975 2.46062,0.6966 3.50978,2.0971 1.16615,1.9972 0.89774,2.5592 0.74217,4.2514 -0.34212,2.4998 -1.22354,3.445 -2.21319,3.8357 -2.43729,0.058 -2.73206,-0.128 -4.14511,-1.4489 -1.30601,-1.1327 -1.2141,-4.0533 -0.93027,-6.2827 0.40226,-1.4957 1.3186,-2.4281 3.03662,-2.4526 z m -3.57079,19.7213 c 3.18464,0.066 3.43117,0.3602 4.22733,0.5782 1.16942,0.6121 3.25382,1.0677 3.40253,1.6396 0.0304,1.0819 0.0662,1.4022 -0.45483,1.5546 -1.8198,0.085 -4.45468,0.3127 -6.61568,0.3127 -3.28889,0.1611 -4.64436,0.4359 -5.61111,-0.2749 -0.35059,-1.6821 -0.30604,-1.8899 0.21798,-3.1562 0.97623,-0.6825 3.24149,-0.5023 4.83378,-0.654 z"
         sodipodi:nodetypes="csccccccccccccccccccccccccc"
         transform="rotate(-90,246.55494,1357.3737)" /></g></g><g
     id="g239-5"
     transform="rotate(180,949.73104,797.4212)"><g
       inkscape:label="0"
       id="g4-5-3" /><g
       inkscape:label="none"
       id="g5-6-3" /><g
       inkscape:label="Shape2DView001"
       id="g57-1-8"><path
         id="path55-7-4"
         style="fill:none;stroke:#000000"
         d="M 10.9606,782.74 H 0.377953 M 10.9606,827.339 V 782.74 m -10.582647,0 v 44.599 m 0,0 H 10.9606 m 0,46.11 H 0.377953 M 10.9606,918.047 v -44.598 m -10.582647,0 v 44.598 m 0,0 H 10.9606 m 0,46.11 H 0.377953 M 10.9606,1008.76 v -44.603 m -10.582647,0 v 44.603 m 0,0 H 10.9606 m 0,46.11 H 0.377953 m 10.582647,44.59 v -44.59 m -10.582647,0 v 44.59 m 0,0 H 10.9606 m 0,46.11 H 0.377953 m 10.582647,44.6 v -44.6 m -10.582647,0 v 44.6 m 0,0 H 10.9606 m 0,46.11 H 0.377953 m 10.582647,44.6 v -44.6 m -10.582647,0 v 44.6 m 0,0 H 10.9606 m 0,46.11 H 0.377953 m 10.582647,44.6 v -44.6 m -10.582647,0 v 44.6 m 0,0 H 10.9606 m 0,46.11 H 0.377953 m 10.582647,44.6 v -44.6 m -10.582647,0 v 44.6 m 0,0 H 10.9606" /><path
         id="path57-6-8"
         style="fill:none;stroke:#000000"
         d="m -158.74,706.772 h 44.976 m 0,831.498 h -44.976 m 0,-26.46 v 26.46 m 0,-26.46 h 18.897 m 4.8e-4,10e-4 a 1511.811,1511.811 0 0 0 56.692914,-389.2913 m 0,0 A 1511.811,1511.811 0 0 0 -139.84252,733.22835 M -158.74,733.228 h 18.897 m -18.897,-26.456 v 26.456 m 44.976,-26.456 v -11.339 m 46.1105,0 h -46.1105 m 46.1105,0 v 11.339 m 0,0 h 44.5984 m 0,0 v -11.339 m 45.7323,0 H -23.0551 M 22.6772,1549.61 V 695.433 m -45.7323,854.177 h 45.7323 m -45.7323,0 v -11.34 m 0,0 h -44.5984 m 0,0 v 11.34 m -46.1105,0 h 46.1105 m -46.1105,0 v -11.34" /></g></g><g
     id="g240-5"
     transform="rotate(90,171.47115,1406.2589)"><g
       inkscape:label="0"
       id="g4-4-1" /><g
       inkscape:label="none"
       id="g5-69-6" /><g
       inkscape:label="Shape2DView002"
       id="g84-6"><path
         id="path20-0-6"
         style="fill:none;stroke:#000000"
         d="m -113.008,1549.61 h -45.732 m 0,0 V 695.433 m 90.3306,11.339 h -44.5986 m 44.5986,-11.339 v 11.339 m 0,-11.339 h 46.1102 m 0,11.339 v -11.339 m 44.9764,11.339 h -44.9764 m 44.9764,0 v 831.498 m -44.9764,0 h 44.9764 m -44.9764,11.34 v -11.34 m 0,11.34 h -46.1102 m 0,-11.34 v 11.34 m -44.5986,-11.34 h 44.5986 m -44.5986,11.34 v -11.34 m 0,-831.498 v -11.339 m -45.732,0 h 45.732" /><path
         id="path84-2-5"
         style="fill:none;stroke:#000000"
         d="M -147.024,827.339 V 782.74 m 10.583,44.599 h -10.583 m 0,-44.599 h 10.583 m 0,0 v 44.599 m -10.583,90.708 v -44.598 m 10.583,44.598 h -10.583 m 0,-44.598 h 10.583 m 0,0 v 44.598 m -10.583,90.713 v -44.603 m 10.583,44.603 h -10.583 m 0,-44.603 h 10.583 m 0,0 v 44.603 m -10.583,90.7 v -44.59 m 10.583,44.59 h -10.583 m 0,-44.59 h 10.583 m 0,0 v 44.59 M 0.377953,827.339 V 782.74 M 10.9606,827.339 H 0.377953 m 0,-44.599 H 10.9606 m 0,0 v 44.599 M 0.377953,918.047 V 873.449 M 10.9606,918.047 H 0.377953 m 0,-44.598 H 10.9606 m 0,0 v 44.598 M 0.377953,1008.76 V 964.157 M 10.9606,1008.76 H 0.377953 m 0,-44.603 H 10.9606 m 0,0 v 44.603 m -10.582647,90.7 v -44.59 M 10.9606,1099.46 H 0.377953 m 0,-44.59 H 10.9606 m 0,0 v 44.59 m -157.9846,90.71 v -44.6 m 10.583,44.6 h -10.583 m 0,-44.6 h 10.583 m 0,0 v 44.6 m -10.583,90.71 v -44.6 m 10.583,44.6 h -10.583 m 0,-44.6 h 10.583 m 0,0 v 44.6 m -10.583,90.71 v -44.6 m 10.583,44.6 h -10.583 m 0,-44.6 h 10.583 m 0,0 v 44.6 m -10.583,90.71 v -44.6 m 10.583,44.6 h -10.583 m 0,-44.6 h 10.583 m 0,0 v 44.6 M 0.377953,1190.17 v -44.6 m 10.582647,44.6 H 0.377953 m 0,-44.6 H 10.9606 m 0,0 v 44.6 m -10.582647,90.71 v -44.6 m 10.582647,44.6 H 0.377953 m 0,-44.6 H 10.9606 m 0,0 v 44.6 m -10.582647,90.71 v -44.6 m 10.582647,44.6 H 0.377953 m 0,-44.6 H 10.9606 m 0,0 v 44.6 M 0.377953,1462.3 v -44.6 M 10.9606,1462.3 H 0.377953 m 0,-44.6 H 10.9606 m 0,0 v 44.6" /></g></g><g
     id="g241-1"
     transform="rotate(90,69.815757,1502.407)"><g
       inkscape:label="0"
       id="g4-0-0" /><g
       inkscape:label="none"
       id="g5-7-8" /><g
       inkscape:label="Shape2DView002"
       id="g84-5-7"><path
         id="path20-5-5"
         style="fill:none;stroke:#000000"
         d="m -113.008,1549.61 h -45.732 m 0,0 V 695.433 m 90.3306,11.339 h -44.5986 m 44.5986,-11.339 v 11.339 m 0,-11.339 h 46.1102 m 0,11.339 v -11.339 m 44.9764,11.339 h -44.9764 m 44.9764,0 v 831.498 m -44.9764,0 h 44.9764 m -44.9764,11.34 v -11.34 m 0,11.34 h -46.1102 m 0,-11.34 v 11.34 m -44.5986,-11.34 h 44.5986 m -44.5986,11.34 v -11.34 m 0,-831.498 v -11.339 m -45.732,0 h 45.732" /><path
         id="path84-3-3"
         style="fill:none;stroke:#000000"
         d="M -147.024,827.339 V 782.74 m 10.583,44.599 h -10.583 m 0,-44.599 h 10.583 m 0,0 v 44.599 m -10.583,90.708 v -44.598 m 10.583,44.598 h -10.583 m 0,-44.598 h 10.583 m 0,0 v 44.598 m -10.583,90.713 v -44.603 m 10.583,44.603 h -10.583 m 0,-44.603 h 10.583 m 0,0 v 44.603 m -10.583,90.7 v -44.59 m 10.583,44.59 h -10.583 m 0,-44.59 h 10.583 m 0,0 v 44.59 M 0.377953,827.339 V 782.74 M 10.9606,827.339 H 0.377953 m 0,-44.599 H 10.9606 m 0,0 v 44.599 M 0.377953,918.047 V 873.449 M 10.9606,918.047 H 0.377953 m 0,-44.598 H 10.9606 m 0,0 v 44.598 M 0.377953,1008.76 V 964.157 M 10.9606,1008.76 H 0.377953 m 0,-44.603 H 10.9606 m 0,0 v 44.603 m -10.582647,90.7 v -44.59 M 10.9606,1099.46 H 0.377953 m 0,-44.59 H 10.9606 m 0,0 v 44.59 m -157.9846,90.71 v -44.6 m 10.583,44.6 h -10.583 m 0,-44.6 h 10.583 m 0,0 v 44.6 m -10.583,90.71 v -44.6 m 10.583,44.6 h -10.583 m 0,-44.6 h 10.583 m 0,0 v 44.6 m -10.583,90.71 v -44.6 m 10.583,44.6 h -10.583 m 0,-44.6 h 10.583 m 0,0 v 44.6 m -10.583,90.71 v -44.6 m 10.583,44.6 h -10.583 m 0,-44.6 h 10.583 m 0,0 v 44.6 M 0.377953,1190.17 v -44.6 m 10.582647,44.6 H 0.377953 m 0,-44.6 H 10.9606 m 0,0 v 44.6 m -10.582647,90.71 v -44.6 m 10.582647,44.6 H 0.377953 m 0,-44.6 H 10.9606 m 0,0 v 44.6 m -10.582647,90.71 v -44.6 m 10.582647,44.6 H 0.377953 m 0,-44.6 H 10.9606 m 0,0 v 44.6 M 0.377953,1462.3 v -44.6 M 10.9606,1462.3 H 0.377953 m 0,-44.6 H 10.9606 m 0,0 v 44.6" /></g></g><g
     id="g242-4"
     transform="translate(2634.4601,-652.21571)"><g
       inkscape:label="0"
       id="g4-48-2" /><g
       inkscape:label="none"
       id="g5-70-2" /><g
       inkscape:label="Shape2DView003"
       id="g42-4"><path
         id="path42-1-0"
         style="fill:none;stroke:#000000"
         d="m -472.441,1549.61 h 45.354 m -45.354,-124.73 v 124.73 m 18.898,-124.73 h -18.898 m 45.354,38.18 v 86.55 m 11.339,-86.55 h -11.339 m 11.339,0 v -46.12 m -11.339,0 h 11.339 m -11.339,-44.59 v 44.59 m 11.339,-44.59 h -11.339 m 11.339,0 v -46.11 m -11.339,0 h 11.339 m -11.339,-44.6 v 44.6 m 11.339,-44.6 h -11.339 m 11.339,0 v -46.11 m -11.339,0 h 11.339 m -11.339,-44.6 v 44.6 m 11.339,-44.6 h -11.339 m 11.339,0 v -46.11 m -11.339,0 h 11.339 m -11.339,-44.6 v 44.6 m 11.339,-44.6 h -11.339 m 11.339,0 v -46.11 m -11.339,0 h 11.339 m -11.339,-44.6 v 44.6 m 11.339,-44.6 h -11.339 m 11.339,0 v -46.108 m -11.339,0 h 11.339 m -11.339,-44.599 v 44.599 m 11.339,-44.599 h -11.339 m 11.339,0 v -46.11 m -11.339,0 h 11.339 m -11.339,-44.599 v 44.599 m 11.339,-44.599 h -11.339 m 11.339,0 v -46.11 m -11.339,0 h 11.339 m -11.339,-86.551 v 86.551 m 0,-86.551 h -26.456 m 0,0 v 729.447" /></g></g><g
     id="g243-8"
     transform="rotate(180,833.00805,796.90703)"><g
       inkscape:label="0"
       id="g4-7-9" /><g
       inkscape:label="none"
       id="g5-4-3" /><g
       inkscape:label="Shape2DView003"
       id="g42-0-1"><path
         id="path42-7-7"
         style="fill:none;stroke:#000000"
         d="m -472.441,1549.61 h 45.354 m -45.354,-124.73 v 124.73 m 18.898,-124.73 h -18.898 m 45.354,38.18 v 86.55 m 11.339,-86.55 h -11.339 m 11.339,0 v -46.12 m -11.339,0 h 11.339 m -11.339,-44.59 v 44.59 m 11.339,-44.59 h -11.339 m 11.339,0 v -46.11 m -11.339,0 h 11.339 m -11.339,-44.6 v 44.6 m 11.339,-44.6 h -11.339 m 11.339,0 v -46.11 m -11.339,0 h 11.339 m -11.339,-44.6 v 44.6 m 11.339,-44.6 h -11.339 m 11.339,0 v -46.11 m -11.339,0 h 11.339 m -11.339,-44.6 v 44.6 m 11.339,-44.6 h -11.339 m 11.339,0 v -46.11 m -11.339,0 h 11.339 m -11.339,-44.6 v 44.6 m 11.339,-44.6 h -11.339 m 11.339,0 v -46.108 m -11.339,0 h 11.339 m -11.339,-44.599 v 44.599 m 11.339,-44.599 h -11.339 m 11.339,0 v -46.11 m -11.339,0 h 11.339 m -11.339,-44.599 v 44.599 m 11.339,-44.599 h -11.339 m 11.339,0 v -46.11 m -11.339,0 h 11.339 m -11.339,-86.551 v 86.551 m 0,-86.551 h -26.456 m 0,0 v 729.447" /></g></g><g
     id="g1"
     transform="translate(445.70902,-676.29999)"><g
       inkscape:label="0"
       id="g4-2" /><g
       inkscape:label="none"
       id="g5-61" /><g
       inkscape:label="Shape2DView"
       id="g236-8"><path
         id="path136-9"
         style="fill:none;stroke:#000000"
         d="m 415.748,1463.06 v 75.21 m 11.339,-75.21 h -11.339 m 11.339,0 v -46.12 m -11.339,0 h 11.339 m -11.339,-44.59 v 44.59 m 11.339,-44.59 h -11.339 m 11.339,0 v -46.11 m -11.339,0 h 11.339 m -11.339,-44.6 v 44.6 m 11.339,-44.6 h -11.339 m 11.339,0 v -46.11 m -11.339,0 h 11.339 m -11.339,-44.6 v 44.6 m 11.339,-44.6 h -11.339 m 11.339,0 v -46.11 m -11.339,0 h 11.339 m -11.339,-44.6 v 44.6 m 11.339,-44.6 h -11.339 m 11.339,0 v -46.11 m -11.339,0 h 11.339 m -11.339,-44.6 v 44.6 m 11.339,-44.6 h -11.339 m 11.339,0 v -46.108 m -11.339,0 h 11.339 m -11.339,-44.599 v 44.599 m 11.339,-44.599 h -11.339 m 11.339,0 v -46.11 m -11.339,0 h 11.339 m -11.339,-44.599 v 44.599 m 11.339,-44.599 h -11.339 m 11.339,0 v -46.11 m -11.339,0 h 11.339 m -11.339,-75.212 v 75.212 m -75.213,-75.212 h 75.213 m -75.213,-11.339 v 11.339 m 0,-11.339 h -46.11 m 0,11.339 v -11.339 m -44.598,11.339 h 44.598 m -44.598,-11.339 v 11.339 m 0,-11.339 h -46.11 m 0,11.339 v -11.339 m -44.599,11.339 h 44.599 m -44.599,-11.339 v 11.339 m 0,-11.339 h -46.11 m 0,11.339 V 695.433 M 68.4094,706.772 H 113.008 M 68.4094,695.433 v 11.339 m 0,-11.339 H 22.2992 m 0,11.339 v -11.339 m -44.5984,11.339 h 44.5984 m -44.5984,-11.339 v 11.339 m 0,-11.339 h -46.1102 m 0,11.339 v -11.339 m -44.5986,11.339 h 44.5986 m -44.5986,-11.339 v 11.339 m 0,-11.339 h -46.11 m 0,11.339 v -11.339 m -44.599,11.339 h 44.599 m -44.599,-11.339 v 11.339 m 0,-11.339 h -46.11 m 0,11.339 v -11.339 m -44.598,11.339 h 44.598 m -44.598,-11.339 v 11.339 m 0,-11.339 h -46.11 m 0,11.339 v -11.339 m -75.213,11.339 h 75.213 m -75.213,0 v 75.212 m 0,0 h -11.339 m 0,0 v 46.11 m 11.339,0 h -11.339 m 11.339,44.599 v -44.599 m -11.339,44.599 h 11.339 m -11.339,0 v 46.11 m 11.339,0 h -11.339 m 11.339,44.599 v -44.599 m -11.339,44.599 h 11.339 m -11.339,0 v 46.108 m 11.339,0 h -11.339 m 11.339,44.6 v -44.6 m -11.339,44.6 h 11.339 m -11.339,0 v 46.11 m 11.339,0 h -11.339 m 11.339,44.6 v -44.6 m -11.339,44.6 h 11.339 m -11.339,0 v 46.11 m 11.339,0 h -11.339 m 11.339,44.6 v -44.6 m -11.339,44.6 h 11.339 m -11.339,0 v 46.11 m 11.339,0 h -11.339 m 11.339,44.6 v -44.6 m -11.339,44.6 h 11.339 m -11.339,0 v 46.11 m 11.339,0 h -11.339 m 11.339,44.59 v -44.59 m -11.339,44.59 h 11.339 m -11.339,0 v 46.12 m 0,0 h 11.339 m 0,0 v 75.21 m 0,0 h 75.213 m 0,11.34 v -11.34 m 0,11.34 h 46.11 m 0,-11.34 v 11.34 m 44.598,-11.34 h -44.598 m 44.598,11.34 v -11.34 m 0,11.34 h 46.11 m 0,-11.34 v 11.34 m 44.599,-11.34 h -44.599 m 44.599,11.34 v -11.34 m 0,11.34 h 46.11 m 0,-11.34 v 11.34 m 44.5986,-11.34 h -44.5986 m 44.5986,11.34 v -11.34 m 0,11.34 h 46.1102 m 0,-11.34 v 11.34 m 44.5984,-11.34 h -44.5984 m 44.5984,11.34 v -11.34 m 0,11.34 h 46.1102 m 0,-11.34 v 11.34 m 44.5986,-11.34 H 68.4094 m 44.5986,11.34 v -11.34 m 0,11.34 h 46.11 m 0,-11.34 v 11.34 m 44.599,-11.34 h -44.599 m 44.599,11.34 v -11.34 m 0,11.34 h 46.11 m 0,-11.34 v 11.34 m 44.598,-11.34 h -44.598 m 44.598,11.34 v -11.34 m 0,11.34 h 46.11 m 0,-11.34 v 11.34 m 75.213,-11.34 h -75.213" /><path
         id="path236-3"
         style="fill:none;stroke:#000000"
         d="M 387.969,734.551 H 246.992 M 387.969,875.528 V 734.551 m -140.977,0 v 140.977 m 0,0 H 387.969 M 229.228,734.551 H 88.252 M 229.228,875.528 V 734.551 m -140.976,0 v 140.977 m 0,0 H 229.228 M 70.4882,734.551 H -70.4882 M 70.4882,875.528 V 734.551 m -140.9764,0 v 140.977 m 0,0 H 70.4882 M 387.969,893.291 H 246.992 M 387.969,1034.27 V 893.291 m -140.977,0 v 140.979 m 0,0 h 140.977 m 0,17.76 H 246.992 m 140.977,140.98 v -140.98 m -140.977,0 v 140.98 m 0,0 H 387.969 M 229.228,893.291 H 88.252 M 229.228,1034.27 V 893.291 m -140.976,0 v 140.979 m 0,0 H 229.228 M 70.4882,893.291 H -70.4882 M 70.4882,1034.27 V 893.291 m -140.9764,0 v 140.979 m 0,0 H 70.4882 m 158.7398,17.76 H 88.252 m 140.976,140.98 v -140.98 m -140.976,0 v 140.98 m 0,0 H 229.228 M 70.4882,1052.03 H -70.4882 m 140.9764,140.98 v -140.98 m -140.9764,0 v 140.98 m 0,0 H 70.4882 M -88.252,734.551 H -229.228 M -88.252,875.528 V 734.551 m -140.976,0 v 140.977 m 0,0 h 140.976 m -158.74,-140.977 h -140.977 m 140.977,140.977 V 734.551 m -140.977,0 v 140.977 m 0,0 h 140.977 m 158.74,17.763 H -229.228 M -88.252,1034.27 V 893.291 m -140.976,0 v 140.979 m 0,0 h 140.976 m 0,17.76 h -140.976 m 140.976,140.98 v -140.98 m -140.976,0 v 140.98 m 0,0 h 140.976 m -158.74,-299.719 h -140.977 m 140.977,140.979 V 893.291 m -140.977,0 v 140.979 m 0,0 h 140.977 m 0,17.76 h -140.977 m 140.977,140.98 v -140.98 m -140.977,0 v 140.98 m 0,0 h 140.977 m 634.961,17.76 H 246.992 m 140.977,140.98 v -140.98 m -140.977,0 v 140.98 m 0,0 H 387.969 M 229.228,1210.77 H 88.252 m 140.976,140.98 v -140.98 m -140.976,0 v 140.98 m 0,0 H 229.228 M 70.4882,1210.77 H -70.4882 m 140.9764,140.98 v -140.98 m -140.9764,0 v 140.98 m 0,0 H 70.4882 m 317.4808,17.76 H 246.992 m 140.977,140.98 v -140.98 m -140.977,0 v 140.98 m 0,0 H 387.969 M 229.228,1369.51 H 88.252 m 140.976,140.98 v -140.98 m -140.976,0 v 140.98 m 0,0 H 229.228 M 70.4882,1369.51 H -70.4882 m 140.9764,140.98 v -140.98 m -140.9764,0 v 140.98 m 0,0 H 70.4882 M -88.252,1210.77 h -140.976 m 140.976,140.98 v -140.98 m -140.976,0 v 140.98 m 0,0 h 140.976 m -158.74,-140.98 h -140.977 m 140.977,140.98 v -140.98 m -140.977,0 v 140.98 m 0,0 h 140.977 m 158.74,17.76 h -140.976 m 140.976,140.98 v -140.98 m -140.976,0 v 140.98 m 0,0 h 140.976 m -158.74,-140.98 h -140.977 m 140.977,140.98 v -140.98 m -140.977,0 v 140.98 m 0,0 h 140.977" /></g></g></svg>
